# Alias OBJ Model File
# Exported from SketchUp, (c) 2000-2012 Trimble Navigation Limited
# File units = millimeters

mtllib middle.mtl

g Mesh1 Group1 Model

usemtl FrontColor
v 98 98 33
vt -3.26124e-033 0
vn -1.9267e-016 1 0
v 2 98 33
vt 3.77953 0
v 2 98 35
vt 3.77953 0.0787402
v 98 98 35
vt -3.26124e-033 0.0787402
f 1/1/1 2/2/1 3/3/1 4/4/1 

v 2 7 33
vt -3.77953 3.58268
vn 0 -0 -1
vt -3.77953 0
vt 0 1.11022e-016
v 98 7 33
vt 0 3.58268
v 78 7 33
vt -0.787402 3.58268
v 78 27 33
vt -0.787402 2.79528
v 22 27 33
vt -2.99213 2.79528
v 22 7 33
vt -2.99213 3.58268
f 5/5/2 2/6/2 1/7/2 6/8/2 7/9/2 8/10/2 9/11/2 10/12/2 

vt 0 0
vn -1 -2.22045e-016 0
vt 3.58268 0
v 2 7 35
vt 3.58268 0.0787402
vt 0 0.0787402
f 2/13/3 5/14/3 11/15/3 3/16/3 

vn 2.22045e-016 -1 0
vt -2.99213 0
v 22 7 35
vt -2.99213 0.0787402
vt -3.77953 0.0787402
f 5/6/4 10/17/4 12/18/4 11/19/4 

v 22 27 35
vt -2.79528 0.0787402
vn 1 2.22045e-016 0
vt -3.58268 0.0787402
vt -3.58268 0
vt -2.79528 0
f 13/20/5 12/21/5 10/22/5 9/23/5 

vt 3.77953 3.58268
vn 0 0 1
vt 2.99213 3.58268
vt 2.99213 2.79528
v 78 27 35
vt 0.787402 2.79528
v 78 7 35
vt 0.787402 3.58268
v 98 7 35
f 11/24/6 12/25/6 13/26/6 14/27/6 15/28/6 16/8/6 4/7/6 3/2/6 

vt -0.787402 0.0787402
vt -0.787402 0
f 14/29/4 13/18/4 9/17/4 8/30/4 

vt 2.79528 0.0787402
vt 2.79528 0
f 15/15/3 14/31/3 8/32/3 7/14/3 

f 15/29/4 7/30/4 6/13/4 16/16/4 

vt -1.11022e-016 0
vt -1.11022e-016 0.0787402
f 6/22/5 1/33/5 4/34/5 16/21/5 

